<svg xmlns="http://www.w3.org/2000/svg" viewBox="0 0 24 24" width="44" height="44"><path fill="#25D366" d="M20.52 3.48A11.88 11.88 0 0012 .5 11.8 11.8 0 001.5 12c0 2.1.55 4.05 1.6 5.78L.5 23.5l5.02-1.59A11.8 11.8 0 0012 23.5 11.88 11.88 0 0020.52 3.48z"/><path fill="#fff" d="M17.1 14.5c-.3-.15-1.8-.9-2.05-1-.25-.1-.45-.15-.65.15-.2.3-.8 1-.95 1.2-.15.2-.3.25-.6.1-.3-.15-1.25-.46-2.4-1.5-.9-.8-1.5-1.8-1.7-2.1-.15-.3 0-.45.1-.6.1-.1.25-.3.4-.45.15-.15.2-.25.3-.4.1-.15.05-.3-.05-.45-.1-.15-.65-1.55-.9-2.1-.25-.55-.5-.45-.65-.45-.15 0-.35 0-.55 0-.2 0-.45.05-.7.35-.25.3-1 1-1 2.4s1.05 2.8 1.2 3c.15.2 2.05 3.3 4.95 4.6 2.9 1.3 2.9.9 3.4.85.5-.05 1.8-.7 2.05-1.4.25-.7.25-1.3.175-1.4-.075-.1-.3-.15-.6-.3z"/></svg>